# xmcd
#
# Track frame offsets:
#	150
#	9777
#	19653
#	35072
#	48004
#	62351
#	74076
#	84747
#	94227
#	108486
#	123157
#	137963
#	150335
#	170618
#
# Disc length: 2295 seconds
#
# Revision: 1
# Processed by: cddbd v1.5.2PL0 Copyright (c) Steve Scherf et al.
# Submitted via: EasyCDDAExtractor 7.0.5.4
#
DISCID=b008f50e
DTITLE=Possessed By Paul James - Possesed By Paul James
DYEAR=2006
DGENRE=Lo-Fi
TTITLE0=fiddle f**k
TTITLE1=old man souls
TTITLE2=no windows
TTITLE3=warden's wife
TTITLE4=men men men
TTITLE5=foot in heaven/hell
TTITLE6=fiddle #1
TTITLE7=diddly bo traditional*
TTITLE8=colorofmybloodynose
TTITLE9=billy bobby boy
TTITLE10=nightmare waltz
TTITLE11=fiddle #2
TTITLE12=committed 
TTITLE13=
EXTD=
EXTT0=
EXTT1=
EXTT2=
EXTT3=
EXTT4=
EXTT5=
EXTT6=
EXTT7=
EXTT8=
EXTT9=
EXTT10=
EXTT11=
EXTT12=
EXTT13=
PLAYORDER=
